# xmcd
# 
# Track frame offsets:
#     150
#     16869
#     36416
#     56402
#     74740
#     91842
#     111728
#     125850
#     143372
#     164145
#     182283
# 
# Disc length: 2709
# 
# Revision: 0
# Processed by: cddbd v1.5.2PL0 Copyright (c) Steve Scherf et al.
# Submitted via: fre:ac v1.0.31
# 
DISCID=9e0a930b
DTITLE=Various Artist - フレッシュプリキュア! ボーカルアルバム 2 ～笑顔のおくりもの～
DYEAR=2009
DGENRE=Anime
TTITLE0=茂家瑞季 - Let's! フレッシュプリキュア! ～Hybrid ver.～
TTITLE1=M*cube - いつもココロにほほえみを
TTITLE2=キュアピーチ (沖佳苗) - lalala Shangri-la (桃・源郷)
TTITLE3=キュアベリー (喜多村英梨) - FRIENDS ～3Q4love～
TTITLE4=Yonji - YOU MAKE ME HAPPY! (英語ver. ～世界中の子供たちへ～)
TTITLE5=キュアフレッシュ! (沖佳苗, 喜多村英梨, 中川亜紀子, 小松由佳) and ミユキ (飯塚雅弓) - Dreaming Flowers
TTITLE6=キュアピーチ (沖佳苗) with ヤング・フレッシュ - プリキュア☆ハッピー☆クリスマス
TTITLE7=キュアパイン (中川亜紀子) - no believe, no life
TTITLE8=キュアパッション (小松由佳) - ミライノキミへ
TTITLE9=林桃子 - H@ppy Together!!!
TTITLE10=キュアフレッシュ! (沖佳苗, 喜多村英梨, 中川亜紀子, 小松由佳) and M*Cube - ハピネス☆Wonder land ～笑顔のおくりもの～
EXTD=
EXTT0=
EXTT1=
EXTT2=
EXTT3=
EXTT4=
EXTT5=
EXTT6=
EXTT7=
EXTT8=
EXTT9=
EXTT10=
PLAYORDER=
